<?xml version="1.0" standalone="no"?><!DOCTYPE svg PUBLIC "-//W3C//DTD SVG 1.1//EN" "http://www.w3.org/Graphics/SVG/1.1/DTD/svg11.dtd"><svg xmlns:xlink="http://www.w3.org/1999/xlink" version="1.1" class="highcharts-root" style="font-family:'lucida grande', 'lucida sans unicode', arial, helvetica, sans-serif;font-size:12px;" xmlns="http://www.w3.org/2000/svg" width="600" viewBox="0 0 600 400" height="400"><desc>Created with Highcharts 5.0.0</desc><defs><clipPath id="highcharts-5"><rect x="0" y="0" width="512" height="315" fill="none"></rect></clipPath></defs><rect fill="transparent" class="highcharts-background" x="0" y="0" width="600" height="400" rx="0" ry="0"></rect><rect fill="none" class="highcharts-plot-background" x="78" y="47" width="512" height="315"></rect><g class="highcharts-plot-bands-0"><path fill="rgb(68, 170, 213)" fill-opacity=" .2" class="highcharts-plot-band " d="M 443.5 47 L 443.5 362 589.5 362 589.5 47"></path></g><g class="highcharts-grid highcharts-xaxis-grid "><path fill="none" class="highcharts-grid-line" d="M 150.5 47 L 150.5 362" opacity="1"></path><path fill="none" class="highcharts-grid-line" d="M 223.5 47 L 223.5 362" opacity="1"></path><path fill="none" class="highcharts-grid-line" d="M 296.5 47 L 296.5 362" opacity="1"></path><path fill="none" class="highcharts-grid-line" d="M 370.5 47 L 370.5 362" opacity="1"></path><path fill="none" class="highcharts-grid-line" d="M 443.5 47 L 443.5 362" opacity="1"></path><path fill="none" class="highcharts-grid-line" d="M 516.5 47 L 516.5 362" opacity="1"></path><path fill="none" class="highcharts-grid-line" d="M 589.5 47 L 589.5 362" opacity="1"></path><path fill="none" class="highcharts-grid-line" d="M 77.5 47 L 77.5 362" opacity="1"></path></g><g class="highcharts-grid highcharts-yaxis-grid "><path fill="none" stroke="#e6e6e6" stroke-width="1" class="highcharts-grid-line" d="M 78 362.5 L 590 362.5" opacity="1"></path><path fill="none" stroke="#e6e6e6" stroke-width="1" class="highcharts-grid-line" d="M 78 310.5 L 590 310.5" opacity="1"></path><path fill="none" stroke="#e6e6e6" stroke-width="1" class="highcharts-grid-line" d="M 78 257.5 L 590 257.5" opacity="1"></path><path fill="none" stroke="#e6e6e6" stroke-width="1" class="highcharts-grid-line" d="M 78 205.5 L 590 205.5" opacity="1"></path><path fill="none" stroke="#e6e6e6" stroke-width="1" class="highcharts-grid-line" d="M 78 152.5 L 590 152.5" opacity="1"></path><path fill="none" stroke="#e6e6e6" stroke-width="1" class="highcharts-grid-line" d="M 78 100.5 L 590 100.5" opacity="1"></path><path fill="none" stroke="#e6e6e6" stroke-width="1" class="highcharts-grid-line" d="M 78 46.5 L 590 46.5" opacity="1"></path></g><rect fill="none" class="highcharts-plot-border" x="78" y="47" width="512" height="315"></rect><g class="highcharts-axis highcharts-xaxis "><path fill="none" class="highcharts-tick" stroke="#ccd6eb" stroke-width="1" d="M 150.5 362 L 150.5 372" opacity="1"></path><path fill="none" class="highcharts-tick" stroke="#ccd6eb" stroke-width="1" d="M 223.5 362 L 223.5 372" opacity="1"></path><path fill="none" class="highcharts-tick" stroke="#ccd6eb" stroke-width="1" d="M 296.5 362 L 296.5 372" opacity="1"></path><path fill="none" class="highcharts-tick" stroke="#ccd6eb" stroke-width="1" d="M 370.5 362 L 370.5 372" opacity="1"></path><path fill="none" class="highcharts-tick" stroke="#ccd6eb" stroke-width="1" d="M 443.5 362 L 443.5 372" opacity="1"></path><path fill="none" class="highcharts-tick" stroke="#ccd6eb" stroke-width="1" d="M 516.5 362 L 516.5 372" opacity="1"></path><path fill="none" class="highcharts-tick" stroke="#ccd6eb" stroke-width="1" d="M 590.5 362 L 590.5 372" opacity="1"></path><path fill="none" class="highcharts-tick" stroke="#ccd6eb" stroke-width="1" d="M 77.5 362 L 77.5 372" opacity="1"></path><path fill="none" class="highcharts-axis-line" stroke="#ccd6eb" stroke-width="1" d="M 78 362.5 L 590 362.5"></path></g><g class="highcharts-axis highcharts-yaxis "><text x="26" text-anchor="middle" transform="translate(0,0) rotate(270 26 204.5)" class="highcharts-axis-title" style="color:#666666;fill:#666666;" y="204.5"><tspan>Fruit units</tspan></text><path fill="none" class="highcharts-axis-line" d="M 78 47 L 78 362"></path></g><g class="highcharts-series-group"><g class="highcharts-series highcharts-series-0 highcharts-areaspline-series highcharts-color-0 " transform="translate(78,47) scale(1 1)" width="315" height="512" clip-path="url(#highcharts-5)"><path fill="rgb(124,181,236)" fill-opacity="0.5" d="M 36.571428571429 252 C 36.571428571429 252 80.45714285714561 231 109.71428571429 231 C 138.97142857142998 231 153.6 252 182.85714285714 252 C 212.114285714284 252 226.74285714285597 210 256 210 C 285.257142857144 210 299.885714285716 231 329.14285714286 231 C 358.4 231 373.02857142857 138.59999999999775 402.28571428571 105 C 431.54285714285396 71.39999999999775 475.42857142857 63 475.42857142857 63 L 475.42857142857 315 C 475.42857142857 315 431.54285714285396 315 402.28571428571 315 C 373.02857142857 315 358.4 315 329.14285714286 315 C 299.885714285716 315 285.257142857144 315 256 315 C 226.74285714285597 315 212.114285714284 315 182.85714285714 315 C 153.6 315 138.97142857142998 315 109.71428571429 315 C 80.45714285714561 315 36.571428571429 315 36.571428571429 315" class="highcharts-area"></path><path fill="none" d="M 36.571428571429 252 C 36.571428571429 252 80.45714285714561 231 109.71428571429 231 C 138.97142857142998 231 153.6 252 182.85714285714 252 C 212.114285714284 252 226.74285714285597 210 256 210 C 285.257142857144 210 299.885714285716 231 329.14285714286 231 C 358.4 231 373.02857142857 138.59999999999775 402.28571428571 105 C 431.54285714285396 71.39999999999775 475.42857142857 63 475.42857142857 63" class="highcharts-graph" stroke="#7cb5ec" stroke-width="2" stroke-linejoin="round" stroke-linecap="round"></path></g><g class="highcharts-markers highcharts-series-0 highcharts-areaspline-series highcharts-color-0 " transform="translate(78,47) scale(1 1)" width="315" height="512" clip-path="none"><path fill="#7cb5ec" d="M 475 59 C 480.328 59 480.328 67 475 67 C 469.672 67 469.672 59 475 59 Z" class="highcharts-point highcharts-color-0"></path><path fill="#7cb5ec" d="M 402 101 C 407.328 101 407.328 109 402 109 C 396.672 109 396.672 101 402 101 Z" class="highcharts-point highcharts-color-0"></path><path fill="#7cb5ec" d="M 329 227 C 334.328 227 334.328 235 329 235 C 323.672 235 323.672 227 329 227 Z" class="highcharts-point highcharts-color-0"></path><path fill="#7cb5ec" d="M 256 206 C 261.328 206 261.328 214 256 214 C 250.672 214 250.672 206 256 206 Z" class="highcharts-point highcharts-color-0"></path><path fill="#7cb5ec" d="M 182 248 C 187.328 248 187.328 256 182 256 C 176.672 256 176.672 248 182 248 Z" class="highcharts-point highcharts-color-0"></path><path fill="#7cb5ec" d="M 109 227 C 114.328 227 114.328 235 109 235 C 103.672 235 103.672 227 109 227 Z" class="highcharts-point highcharts-color-0"></path><path fill="#7cb5ec" d="M 36 248 C 41.328 248 41.328 256 36 256 C 30.672 256 30.672 248 36 248 Z" class="highcharts-point highcharts-color-0"></path></g><g class="highcharts-series highcharts-series-1 highcharts-areaspline-series highcharts-color-1 " transform="translate(78,47) scale(1 1)" width="315" height="512" clip-path="url(#highcharts-5)"><path fill="rgb(67,67,72)" fill-opacity="0.5" d="M 36.571428571429 294 C 36.571428571429 294 80.45714285714561 264.60000000000093 109.71428571429 252 C 138.97142857142998 239.40000000000094 153.6 231 182.85714285714 231 C 212.114285714284 231 226.74285714285597 252 256 252 C 285.257142857144 252 299.885714285716 252 329.14285714286 252 C 358.4 252 373.02857142857 210 402.28571428571 210 C 431.54285714285396 210 475.42857142857 231 475.42857142857 231 L 475.42857142857 315 C 475.42857142857 315 431.54285714285396 315 402.28571428571 315 C 373.02857142857 315 358.4 315 329.14285714286 315 C 299.885714285716 315 285.257142857144 315 256 315 C 226.74285714285597 315 212.114285714284 315 182.85714285714 315 C 153.6 315 138.97142857142998 315 109.71428571429 315 C 80.45714285714561 315 36.571428571429 315 36.571428571429 315" class="highcharts-area"></path><path fill="none" d="M 36.571428571429 294 C 36.571428571429 294 80.45714285714561 264.60000000000093 109.71428571429 252 C 138.97142857142998 239.40000000000094 153.6 231 182.85714285714 231 C 212.114285714284 231 226.74285714285597 252 256 252 C 285.257142857144 252 299.885714285716 252 329.14285714286 252 C 358.4 252 373.02857142857 210 402.28571428571 210 C 431.54285714285396 210 475.42857142857 231 475.42857142857 231" class="highcharts-graph" stroke="#434348" stroke-width="2" stroke-linejoin="round" stroke-linecap="round"></path></g><g class="highcharts-markers highcharts-series-1 highcharts-areaspline-series highcharts-color-1 " transform="translate(78,47) scale(1 1)" width="315" height="512" clip-path="none"><path fill="#434348" d="M 475 227 L 479 231 475 235 471 231 Z" class="highcharts-point highcharts-color-1"></path><path fill="#434348" d="M 402 206 L 406 210 402 214 398 210 Z" class="highcharts-point highcharts-color-1"></path><path fill="#434348" d="M 329 248 L 333 252 329 256 325 252 Z" class="highcharts-point highcharts-color-1"></path><path fill="#434348" d="M 256 248 L 260 252 256 256 252 252 Z" class="highcharts-point highcharts-color-1"></path><path fill="#434348" d="M 182 227 L 186 231 182 235 178 231 Z" class="highcharts-point highcharts-color-1"></path><path fill="#434348" d="M 109 248 L 113 252 109 256 105 252 Z" class="highcharts-point highcharts-color-1"></path><path fill="#434348" d="M 36 290 L 40 294 36 298 32 294 Z" class="highcharts-point highcharts-color-1"></path></g></g><text x="300" text-anchor="middle" class="highcharts-title" style="color:#333333;font-size:18px;fill:#333333;width:536px;" y="24"><tspan>Average Ceroxo consumption during one week</tspan></text><g class="highcharts-legend" transform="translate(160,110)"><rect fill="#FFFFFF" class="highcharts-legend-box" rx="0" ry="0" stroke="#999999" stroke-width="1" x="0.5" y="0.5" width="68" height="42" visibility="visible"></rect><g><g><g class="highcharts-legend-item highcharts-areaspline-series highcharts-color-0 highcharts-series-0" transform="translate(8,3)"><text x="21" style="color:#333333;font-size:12px;font-weight:bold;cursor:pointer;fill:#333333;" text-anchor="start" y="15">John</text><rect x="2" y="4" width="12" height="12" fill="#7cb5ec" rx="6" ry="6" class="highcharts-point"></rect></g><g class="highcharts-legend-item highcharts-areaspline-series highcharts-color-1 highcharts-series-1" transform="translate(8,19)"><text x="21" y="15" style="color:#333333;font-size:12px;font-weight:bold;cursor:pointer;fill:#333333;" text-anchor="start">Jane</text><rect x="2" y="4" width="12" height="12" fill="#434348" rx="6" ry="6" class="highcharts-point"></rect></g></g></g></g><g class="highcharts-axis-labels highcharts-xaxis-labels "><text x="114.57142857142857" style="color:#666666;cursor:default;font-size:11px;fill:#666666;width:73.14285714285714;text-overflow:ellipsis;" text-anchor="middle" transform="translate(0,0)" y="381" opacity="1"><tspan>Monday</tspan></text><text x="187.71428571428572" style="color:#666666;cursor:default;font-size:11px;fill:#666666;width:73.14285714285714;text-overflow:ellipsis;" text-anchor="middle" transform="translate(0,0)" y="381" opacity="1"><tspan>Tuesday</tspan></text><text x="260.85714285714283" style="color:#666666;cursor:default;font-size:11px;fill:#666666;width:73.14285714285714;text-overflow:ellipsis;" text-anchor="middle" transform="translate(0,0)" y="381" opacity="1"><tspan>Wednesday</tspan></text><text x="334" style="color:#666666;cursor:default;font-size:11px;fill:#666666;width:73.14285714285714;text-overflow:ellipsis;" text-anchor="middle" transform="translate(0,0)" y="381" opacity="1"><tspan>Thursday</tspan></text><text x="407.1428571428571" style="color:#666666;cursor:default;font-size:11px;fill:#666666;width:73.14285714285714;text-overflow:ellipsis;" text-anchor="middle" transform="translate(0,0)" y="381" opacity="1"><tspan>Friday</tspan></text><text x="480.28571428571433" style="color:#666666;cursor:default;font-size:11px;fill:#666666;width:73.14285714285714;text-overflow:ellipsis;" text-anchor="middle" transform="translate(0,0)" y="381" opacity="1"><tspan>Saturday</tspan></text><text x="553.4285714285714" style="color:#666666;cursor:default;font-size:11px;fill:#666666;width:73.14285714285714;text-overflow:ellipsis;" text-anchor="middle" transform="translate(0,0)" y="381" opacity="1"><tspan>Sunday</tspan></text></g><g class="highcharts-axis-labels highcharts-yaxis-labels "><text x="63" style="color:#666666;cursor:default;font-size:11px;fill:#666666;width:188px;text-overflow:clip;" text-anchor="end" transform="translate(0,0)" y="366" opacity="1"><tspan>0</tspan></text><text x="63" style="color:#666666;cursor:default;font-size:11px;fill:#666666;width:188px;text-overflow:clip;" text-anchor="end" transform="translate(0,0)" y="313" opacity="1"><tspan>2.5</tspan></text><text x="63" style="color:#666666;cursor:default;font-size:11px;fill:#666666;width:188px;text-overflow:clip;" text-anchor="end" transform="translate(0,0)" y="261" opacity="1"><tspan>5</tspan></text><text x="63" style="color:#666666;cursor:default;font-size:11px;fill:#666666;width:188px;text-overflow:clip;" text-anchor="end" transform="translate(0,0)" y="208" opacity="1"><tspan>7.5</tspan></text><text x="63" style="color:#666666;cursor:default;font-size:11px;fill:#666666;width:188px;text-overflow:clip;" text-anchor="end" transform="translate(0,0)" y="156" opacity="1"><tspan>10</tspan></text><text x="63" style="color:#666666;cursor:default;font-size:11px;fill:#666666;width:188px;text-overflow:clip;" text-anchor="end" transform="translate(0,0)" y="103" opacity="1"><tspan>12.5</tspan></text><text x="63" style="color:#666666;cursor:default;font-size:11px;fill:#666666;width:188px;text-overflow:clip;" text-anchor="end" transform="translate(0,0)" y="51" opacity="1"><tspan>15</tspan></text></g><g class="highcharts-label highcharts-tooltip" display="none" style="cursor:default;pointer-events:none;white-space:nowrap;" transform="translate(0,0)"><path fill="none" class="highcharts-label-box highcharts-tooltip-box" d="M 3.5 0.5 L 13.5 0.5 C 16.5 0.5 16.5 0.5 16.5 3.5 L 16.5 13.5 C 16.5 16.5 16.5 16.5 13.5 16.5 L 3.5 16.5 C 0.5 16.5 0.5 16.5 0.5 13.5 L 0.5 3.5 C 0.5 0.5 0.5 0.5 3.5 0.5"  stroke="#000000" stroke-opacity="0.049999999999999996" stroke-width="5" transform="translate(1, 1)"></path><path fill="none" class="highcharts-label-box highcharts-tooltip-box" d="M 3.5 0.5 L 13.5 0.5 C 16.5 0.5 16.5 0.5 16.5 3.5 L 16.5 13.5 C 16.5 16.5 16.5 16.5 13.5 16.5 L 3.5 16.5 C 0.5 16.5 0.5 16.5 0.5 13.5 L 0.5 3.5 C 0.5 0.5 0.5 0.5 3.5 0.5"  stroke="#000000" stroke-opacity="0.09999999999999999" stroke-width="3" transform="translate(1, 1)"></path><path fill="none" class="highcharts-label-box highcharts-tooltip-box" d="M 3.5 0.5 L 13.5 0.5 C 16.5 0.5 16.5 0.5 16.5 3.5 L 16.5 13.5 C 16.5 16.5 16.5 16.5 13.5 16.5 L 3.5 16.5 C 0.5 16.5 0.5 16.5 0.5 13.5 L 0.5 3.5 C 0.5 0.5 0.5 0.5 3.5 0.5"  stroke="#000000" stroke-opacity="0.15" stroke-width="1" transform="translate(1, 1)"></path><path fill="rgb(247,247,247)" fill-opacity="0.85" class="highcharts-label-box highcharts-tooltip-box" d="M 3.5 0.5 L 13.5 0.5 C 16.5 0.5 16.5 0.5 16.5 3.5 L 16.5 13.5 C 16.5 16.5 16.5 16.5 13.5 16.5 L 3.5 16.5 C 0.5 16.5 0.5 16.5 0.5 13.5 L 0.5 3.5 C 0.5 0.5 0.5 0.5 3.5 0.5"></path><text x="8" style="font-size:12px;color:#333333;fill:#333333;" y="20"></text></g></svg>